<svg xmlns="http://www.w3.org/2000/svg" viewBox="0 0 100 100">
  <defs>
    <linearGradient id="g" x1="0%" y1="0%" x2="100%" y2="100%">
      <stop offset="0%" stop-color="#4f46e5"/>
      <stop offset="100%" stop-color="#7c3aed"/>
    </linearGradient>
  </defs>
  <rect width="100" height="100" rx="20" fill="url(#g)"/>
  <path d="M50 20c-12 0-22 8-25 19-1 3 0 6 2 8l5 5c2 2 3 5 3 8v2c0 4 3 7 7 7h16c4 0 7-3 7-7v-2c0-3 1-6 3-8l5-5c2-2 3-5 2-8-3-11-13-19-25-19z" fill="white" opacity="0.95"/>
  <rect x="38" y="72" width="24" height="3" rx="1.5" fill="white" opacity="0.7"/>
  <rect x="42" y="78" width="16" height="3" rx="1.5" fill="white" opacity="0.5"/>
</svg>
